<mxfile host="Electron" modified="2024-05-11T01:28:04.738Z" agent="Mozilla/5.0 (Windows NT 10.0; Win64; x64) AppleWebKit/537.36 (KHTML, like Gecko) draw.io/24.2.5 Chrome/120.0.6099.109 Electron/28.1.0 Safari/537.36" etag="b6kakts5G5oBzgDplf9j" version="24.2.5" type="device" pages="2">
  <diagram id="whBUw9y59ejLNcwYnMEP" name="Page-1">
    <mxGraphModel dx="1248" dy="1470" grid="1" gridSize="10" guides="1" tooltips="1" connect="1" arrows="1" fold="1" page="1" pageScale="1" pageWidth="1100" pageHeight="850" math="0" shadow="0">
      <root>
        <mxCell id="0" />
        <mxCell id="1" parent="0" />
        <mxCell id="cLr_XbdgQs35K9SnWpNF-22" value="" style="rounded=0;whiteSpace=wrap;html=1;fontSize=12;" parent="1" vertex="1">
          <mxGeometry x="80" y="160" width="780" height="360" as="geometry" />
        </mxCell>
        <mxCell id="cLr_XbdgQs35K9SnWpNF-29" value="&lt;div style=&quot;font-size: 14px;&quot;&gt;&lt;span style=&quot;background-color: initial;&quot;&gt;&lt;font style=&quot;font-size: 14px;&quot;&gt;&amp;nbsp;ACES2065-1&lt;/font&gt;&lt;/span&gt;&lt;/div&gt;&lt;div style=&quot;font-size: 14px;&quot;&gt;&lt;span style=&quot;background-color: initial;&quot;&gt;&lt;font style=&quot;font-size: 14px;&quot;&gt;&lt;br&gt;&lt;/font&gt;&lt;/span&gt;&lt;/div&gt;&lt;div style=&quot;font-size: 14px;&quot;&gt;&lt;span style=&quot;background-color: initial;&quot;&gt;&lt;font style=&quot;font-size: 14px;&quot;&gt;&lt;br&gt;&lt;/font&gt;&lt;/span&gt;&lt;/div&gt;&lt;div style=&quot;font-size: 14px;&quot;&gt;&lt;span style=&quot;background-color: initial;&quot;&gt;&lt;font style=&quot;font-size: 14px;&quot;&gt;&lt;br&gt;&lt;/font&gt;&lt;/span&gt;&lt;/div&gt;&lt;div style=&quot;font-size: 14px;&quot;&gt;&lt;span style=&quot;background-color: initial;&quot;&gt;&lt;font style=&quot;font-size: 14px;&quot;&gt;&lt;br&gt;&lt;/font&gt;&lt;/span&gt;&lt;/div&gt;&lt;div style=&quot;font-size: 14px;&quot;&gt;&lt;span style=&quot;background-color: initial;&quot;&gt;&lt;font style=&quot;font-size: 14px;&quot;&gt;&lt;br&gt;&lt;/font&gt;&lt;/span&gt;&lt;/div&gt;&lt;div style=&quot;font-size: 14px;&quot;&gt;&lt;span style=&quot;background-color: initial;&quot;&gt;&lt;font style=&quot;font-size: 14px;&quot;&gt;&lt;br&gt;&lt;/font&gt;&lt;/span&gt;&lt;/div&gt;&lt;div style=&quot;font-size: 14px;&quot;&gt;&lt;span style=&quot;background-color: initial;&quot;&gt;&lt;font style=&quot;font-size: 14px;&quot;&gt;&lt;br&gt;&lt;/font&gt;&lt;/span&gt;&lt;/div&gt;&lt;div style=&quot;font-size: 14px;&quot;&gt;&lt;span style=&quot;background-color: initial;&quot;&gt;&lt;font style=&quot;font-size: 14px;&quot;&gt;&lt;br&gt;&lt;/font&gt;&lt;/span&gt;&lt;/div&gt;&lt;div style=&quot;font-size: 14px;&quot;&gt;&lt;span style=&quot;background-color: initial;&quot;&gt;&lt;font style=&quot;font-size: 14px;&quot;&gt;&lt;br&gt;&lt;/font&gt;&lt;/span&gt;&lt;/div&gt;&lt;div style=&quot;font-size: 14px;&quot;&gt;&lt;span style=&quot;background-color: initial;&quot;&gt;&lt;font style=&quot;font-size: 14px;&quot;&gt;&lt;br&gt;&lt;/font&gt;&lt;/span&gt;&lt;/div&gt;&lt;div style=&quot;font-size: 14px;&quot;&gt;&lt;span style=&quot;background-color: initial;&quot;&gt;&lt;font style=&quot;font-size: 14px;&quot;&gt;&lt;br&gt;&lt;/font&gt;&lt;/span&gt;&lt;/div&gt;&lt;div style=&quot;font-size: 14px;&quot;&gt;&lt;span style=&quot;background-color: initial;&quot;&gt;&lt;font style=&quot;font-size: 14px;&quot;&gt;&lt;br&gt;&lt;/font&gt;&lt;/span&gt;&lt;/div&gt;&lt;div style=&quot;font-size: 14px;&quot;&gt;&lt;span style=&quot;background-color: initial;&quot;&gt;&lt;font style=&quot;font-size: 14px;&quot;&gt;&lt;br&gt;&lt;/font&gt;&lt;/span&gt;&lt;/div&gt;&lt;div style=&quot;font-size: 14px;&quot;&gt;&lt;span style=&quot;background-color: initial;&quot;&gt;&lt;font style=&quot;font-size: 14px;&quot;&gt;&lt;br&gt;&lt;/font&gt;&lt;/span&gt;&lt;/div&gt;&lt;div style=&quot;font-size: 14px;&quot;&gt;&lt;span style=&quot;background-color: initial;&quot;&gt;&lt;font style=&quot;font-size: 14px;&quot;&gt;&lt;br&gt;&lt;/font&gt;&lt;/span&gt;&lt;/div&gt;&lt;div style=&quot;font-size: 14px;&quot;&gt;&lt;span style=&quot;background-color: initial;&quot;&gt;&lt;br&gt;&lt;/span&gt;&lt;/div&gt;&lt;div style=&quot;font-size: 14px;&quot;&gt;&lt;span style=&quot;background-color: initial;&quot;&gt;&lt;br&gt;&lt;/span&gt;&lt;/div&gt;&lt;div style=&quot;font-size: 14px;&quot;&gt;&lt;span style=&quot;background-color: initial;&quot;&gt;&lt;br&gt;&lt;/span&gt;&lt;/div&gt;&lt;div style=&quot;font-size: 14px;&quot;&gt;&lt;span style=&quot;background-color: initial;&quot;&gt;&lt;br&gt;&lt;/span&gt;&lt;/div&gt;" style="rounded=0;whiteSpace=wrap;html=1;fontSize=12;fillColor=#ffe6cc;dashed=1;strokeColor=#d79b00;align=left;" parent="1" vertex="1">
          <mxGeometry x="420" y="170" width="120" height="340" as="geometry" />
        </mxCell>
        <mxCell id="cLr_XbdgQs35K9SnWpNF-25" value="&lt;font style=&quot;font-size: 14px;&quot;&gt;&amp;nbsp;BT.2020 - SMPTE ST 2084&lt;br&gt;&lt;br&gt;&lt;br&gt;&lt;br&gt;&lt;br&gt;&lt;br&gt;&lt;br&gt;&lt;br&gt;&lt;br&gt;&lt;br&gt;&lt;br&gt;&lt;br&gt;&lt;br&gt;&lt;br&gt;&lt;br&gt;&lt;br&gt;&lt;br&gt;&lt;br&gt;&lt;br&gt;&lt;br&gt;&lt;/font&gt;" style="rounded=0;whiteSpace=wrap;html=1;fontSize=12;fillColor=#dae8fc;dashed=1;strokeColor=#6c8ebf;align=left;" parent="1" vertex="1">
          <mxGeometry x="660" y="170" width="190" height="340" as="geometry" />
        </mxCell>
        <mxCell id="cLr_XbdgQs35K9SnWpNF-24" value="&lt;div style=&quot;font-size: 14px;&quot;&gt;&lt;span style=&quot;background-color: initial;&quot;&gt;&lt;font style=&quot;font-size: 14px;&quot;&gt;&amp;nbsp;ACES2065-1&lt;/font&gt;&lt;/span&gt;&lt;/div&gt;&lt;div style=&quot;font-size: 14px;&quot;&gt;&lt;span style=&quot;background-color: initial;&quot;&gt;&lt;font style=&quot;font-size: 14px;&quot;&gt;&lt;br&gt;&lt;/font&gt;&lt;/span&gt;&lt;/div&gt;&lt;div style=&quot;font-size: 14px;&quot;&gt;&lt;span style=&quot;background-color: initial;&quot;&gt;&lt;font style=&quot;font-size: 14px;&quot;&gt;&lt;br&gt;&lt;/font&gt;&lt;/span&gt;&lt;/div&gt;&lt;div style=&quot;font-size: 14px;&quot;&gt;&lt;span style=&quot;background-color: initial;&quot;&gt;&lt;font style=&quot;font-size: 14px;&quot;&gt;&lt;br&gt;&lt;/font&gt;&lt;/span&gt;&lt;/div&gt;&lt;div style=&quot;font-size: 14px;&quot;&gt;&lt;span style=&quot;background-color: initial;&quot;&gt;&lt;font style=&quot;font-size: 14px;&quot;&gt;&lt;br&gt;&lt;/font&gt;&lt;/span&gt;&lt;/div&gt;&lt;div style=&quot;font-size: 14px;&quot;&gt;&lt;span style=&quot;background-color: initial;&quot;&gt;&lt;font style=&quot;font-size: 14px;&quot;&gt;&lt;br&gt;&lt;/font&gt;&lt;/span&gt;&lt;/div&gt;&lt;div style=&quot;font-size: 14px;&quot;&gt;&lt;span style=&quot;background-color: initial;&quot;&gt;&lt;font style=&quot;font-size: 14px;&quot;&gt;&lt;br&gt;&lt;/font&gt;&lt;/span&gt;&lt;/div&gt;&lt;div style=&quot;font-size: 14px;&quot;&gt;&lt;span style=&quot;background-color: initial;&quot;&gt;&lt;font style=&quot;font-size: 14px;&quot;&gt;&lt;br&gt;&lt;/font&gt;&lt;/span&gt;&lt;/div&gt;&lt;div style=&quot;font-size: 14px;&quot;&gt;&lt;span style=&quot;background-color: initial;&quot;&gt;&lt;font style=&quot;font-size: 14px;&quot;&gt;&lt;br&gt;&lt;/font&gt;&lt;/span&gt;&lt;/div&gt;&lt;div style=&quot;font-size: 14px;&quot;&gt;&lt;span style=&quot;background-color: initial;&quot;&gt;&lt;font style=&quot;font-size: 14px;&quot;&gt;&lt;br&gt;&lt;/font&gt;&lt;/span&gt;&lt;/div&gt;&lt;div style=&quot;font-size: 14px;&quot;&gt;&lt;span style=&quot;background-color: initial;&quot;&gt;&lt;font style=&quot;font-size: 14px;&quot;&gt;&lt;br&gt;&lt;/font&gt;&lt;/span&gt;&lt;/div&gt;&lt;div style=&quot;font-size: 14px;&quot;&gt;&lt;span style=&quot;background-color: initial;&quot;&gt;&lt;font style=&quot;font-size: 14px;&quot;&gt;&lt;br&gt;&lt;/font&gt;&lt;/span&gt;&lt;/div&gt;&lt;div style=&quot;font-size: 14px;&quot;&gt;&lt;span style=&quot;background-color: initial;&quot;&gt;&lt;font style=&quot;font-size: 14px;&quot;&gt;&lt;br&gt;&lt;/font&gt;&lt;/span&gt;&lt;/div&gt;&lt;div style=&quot;font-size: 14px;&quot;&gt;&lt;span style=&quot;background-color: initial;&quot;&gt;&lt;font style=&quot;font-size: 14px;&quot;&gt;&lt;br&gt;&lt;/font&gt;&lt;/span&gt;&lt;/div&gt;&lt;div style=&quot;font-size: 14px;&quot;&gt;&lt;span style=&quot;background-color: initial;&quot;&gt;&lt;font style=&quot;font-size: 14px;&quot;&gt;&lt;br&gt;&lt;/font&gt;&lt;/span&gt;&lt;/div&gt;&lt;div style=&quot;font-size: 14px;&quot;&gt;&lt;span style=&quot;background-color: initial;&quot;&gt;&lt;font style=&quot;font-size: 14px;&quot;&gt;&lt;br&gt;&lt;/font&gt;&lt;/span&gt;&lt;/div&gt;&lt;div style=&quot;font-size: 14px;&quot;&gt;&lt;span style=&quot;background-color: initial;&quot;&gt;&lt;br&gt;&lt;/span&gt;&lt;/div&gt;&lt;div style=&quot;font-size: 14px;&quot;&gt;&lt;span style=&quot;background-color: initial;&quot;&gt;&lt;br&gt;&lt;/span&gt;&lt;/div&gt;&lt;div style=&quot;font-size: 14px;&quot;&gt;&lt;span style=&quot;background-color: initial;&quot;&gt;&lt;br&gt;&lt;/span&gt;&lt;/div&gt;&lt;div style=&quot;font-size: 14px;&quot;&gt;&lt;span style=&quot;background-color: initial;&quot;&gt;&lt;br&gt;&lt;/span&gt;&lt;/div&gt;" style="rounded=0;whiteSpace=wrap;html=1;fontSize=12;fillColor=#ffe6cc;dashed=1;strokeColor=#d79b00;align=left;" parent="1" vertex="1">
          <mxGeometry x="90" y="170" width="210" height="340" as="geometry" />
        </mxCell>
        <mxCell id="cLr_XbdgQs35K9SnWpNF-1" value="Read" style="rounded=0;whiteSpace=wrap;html=1;" parent="1" vertex="1">
          <mxGeometry x="200" y="260" width="80" height="40" as="geometry" />
        </mxCell>
        <mxCell id="cLr_XbdgQs35K9SnWpNF-2" value="ColorCorrect" style="rounded=0;whiteSpace=wrap;html=1;" parent="1" vertex="1">
          <mxGeometry x="440" y="260" width="80" height="40" as="geometry" />
        </mxCell>
        <mxCell id="cLr_XbdgQs35K9SnWpNF-3" value="OCIO&lt;br&gt;Transform" style="rounded=0;whiteSpace=wrap;html=1;" parent="1" vertex="1">
          <mxGeometry x="560" y="260" width="80" height="40" as="geometry" />
        </mxCell>
        <mxCell id="cLr_XbdgQs35K9SnWpNF-4" value="OpenEXR&lt;br&gt;(Source)" style="shape=note;whiteSpace=wrap;html=1;backgroundOutline=1;darkOpacity=0.05;size=18;" parent="1" vertex="1">
          <mxGeometry x="100" y="220" width="64" height="80" as="geometry" />
        </mxCell>
        <mxCell id="cLr_XbdgQs35K9SnWpNF-5" value="LCD Monitor&lt;font style=&quot;font-size: 12px;&quot;&gt;&lt;br&gt;&lt;/font&gt;(BT.2020 - SMPTE ST 2084)" style="rounded=1;whiteSpace=wrap;html=1;" parent="1" vertex="1">
          <mxGeometry x="680" y="260" width="160" height="40" as="geometry" />
        </mxCell>
        <mxCell id="cLr_XbdgQs35K9SnWpNF-6" value="" style="endArrow=classic;html=1;rounded=0;fontSize=12;entryX=0;entryY=0.5;entryDx=0;entryDy=0;exitX=0.995;exitY=0.752;exitDx=0;exitDy=0;exitPerimeter=0;" parent="1" source="cLr_XbdgQs35K9SnWpNF-4" target="cLr_XbdgQs35K9SnWpNF-1" edge="1">
          <mxGeometry width="50" height="50" relative="1" as="geometry">
            <mxPoint x="164" y="300" as="sourcePoint" />
            <mxPoint x="410" y="370" as="targetPoint" />
          </mxGeometry>
        </mxCell>
        <mxCell id="cLr_XbdgQs35K9SnWpNF-9" value="" style="endArrow=classic;html=1;rounded=0;fontSize=12;" parent="1" edge="1">
          <mxGeometry width="50" height="50" relative="1" as="geometry">
            <mxPoint x="280" y="280" as="sourcePoint" />
            <mxPoint x="320" y="280" as="targetPoint" />
          </mxGeometry>
        </mxCell>
        <mxCell id="cLr_XbdgQs35K9SnWpNF-12" value="" style="endArrow=classic;html=1;rounded=0;fontSize=12;exitX=1;exitY=0.5;exitDx=0;exitDy=0;entryX=0;entryY=0.5;entryDx=0;entryDy=0;" parent="1" source="cLr_XbdgQs35K9SnWpNF-2" target="cLr_XbdgQs35K9SnWpNF-3" edge="1">
          <mxGeometry width="50" height="50" relative="1" as="geometry">
            <mxPoint x="550" y="250" as="sourcePoint" />
            <mxPoint x="600" y="200" as="targetPoint" />
          </mxGeometry>
        </mxCell>
        <mxCell id="cLr_XbdgQs35K9SnWpNF-13" value="" style="endArrow=classic;html=1;rounded=0;fontSize=12;exitX=1;exitY=0.5;exitDx=0;exitDy=0;entryX=0;entryY=0.5;entryDx=0;entryDy=0;" parent="1" source="cLr_XbdgQs35K9SnWpNF-3" target="cLr_XbdgQs35K9SnWpNF-5" edge="1">
          <mxGeometry width="50" height="50" relative="1" as="geometry">
            <mxPoint x="660" y="260" as="sourcePoint" />
            <mxPoint x="710" y="210" as="targetPoint" />
          </mxGeometry>
        </mxCell>
        <mxCell id="cLr_XbdgQs35K9SnWpNF-14" value="Write" style="rounded=0;whiteSpace=wrap;html=1;" parent="1" vertex="1">
          <mxGeometry x="440" y="340" width="80" height="40" as="geometry" />
        </mxCell>
        <mxCell id="cLr_XbdgQs35K9SnWpNF-15" value="OpenEXR&lt;br&gt;(Edited)" style="shape=note;whiteSpace=wrap;html=1;backgroundOutline=1;darkOpacity=0.05;size=18;" parent="1" vertex="1">
          <mxGeometry x="448" y="420" width="64" height="80" as="geometry" />
        </mxCell>
        <mxCell id="cLr_XbdgQs35K9SnWpNF-19" value="" style="endArrow=classic;html=1;rounded=0;fontSize=12;entryX=0.5;entryY=0;entryDx=0;entryDy=0;entryPerimeter=0;exitX=0.5;exitY=1;exitDx=0;exitDy=0;" parent="1" source="cLr_XbdgQs35K9SnWpNF-14" target="cLr_XbdgQs35K9SnWpNF-15" edge="1">
          <mxGeometry width="50" height="50" relative="1" as="geometry">
            <mxPoint x="644" y="361" as="sourcePoint" />
            <mxPoint x="460" y="350" as="targetPoint" />
          </mxGeometry>
        </mxCell>
        <mxCell id="cLr_XbdgQs35K9SnWpNF-23" value="" style="endArrow=classic;html=1;rounded=0;fontSize=12;exitX=0.5;exitY=1;exitDx=0;exitDy=0;entryX=0.5;entryY=0;entryDx=0;entryDy=0;" parent="1" source="cLr_XbdgQs35K9SnWpNF-2" target="cLr_XbdgQs35K9SnWpNF-14" edge="1">
          <mxGeometry width="50" height="50" relative="1" as="geometry">
            <mxPoint x="430" y="150" as="sourcePoint" />
            <mxPoint x="480" y="100" as="targetPoint" />
          </mxGeometry>
        </mxCell>
        <mxCell id="cLr_XbdgQs35K9SnWpNF-27" value="OCIO&lt;br&gt;Transform" style="rounded=0;whiteSpace=wrap;html=1;" parent="1" vertex="1">
          <mxGeometry x="320" y="260" width="80" height="40" as="geometry" />
        </mxCell>
        <mxCell id="cLr_XbdgQs35K9SnWpNF-28" value="" style="endArrow=classic;html=1;rounded=0;fontSize=14;exitX=1;exitY=0.5;exitDx=0;exitDy=0;entryX=0;entryY=0.5;entryDx=0;entryDy=0;" parent="1" source="cLr_XbdgQs35K9SnWpNF-27" target="cLr_XbdgQs35K9SnWpNF-2" edge="1">
          <mxGeometry width="50" height="50" relative="1" as="geometry">
            <mxPoint x="410" y="240" as="sourcePoint" />
            <mxPoint x="460" y="190" as="targetPoint" />
          </mxGeometry>
        </mxCell>
      </root>
    </mxGraphModel>
  </diagram>
  <diagram name="ConnectionDiagram" id="VJ32Ytt8WAY_FeU5ZcvN">
    <mxGraphModel dx="1248" dy="1470" grid="1" gridSize="10" guides="1" tooltips="1" connect="1" arrows="1" fold="1" page="1" pageScale="1" pageWidth="1100" pageHeight="850" math="0" shadow="0">
      <root>
        <mxCell id="3HGsCcztkfqZ8WQmEPc8-0" />
        <mxCell id="3HGsCcztkfqZ8WQmEPc8-1" parent="3HGsCcztkfqZ8WQmEPc8-0" />
        <mxCell id="acqwrirkuTZHSX3xNSDC-0" value="" style="rounded=0;whiteSpace=wrap;html=1;fontSize=12;" vertex="1" parent="3HGsCcztkfqZ8WQmEPc8-1">
          <mxGeometry x="40" y="45" width="880" height="315" as="geometry" />
        </mxCell>
        <mxCell id="3HGsCcztkfqZ8WQmEPc8-2" value="" style="rounded=0;whiteSpace=wrap;html=1;fillColor=none;" parent="3HGsCcztkfqZ8WQmEPc8-1" vertex="1">
          <mxGeometry x="50" y="80" width="220" height="270" as="geometry" />
        </mxCell>
        <mxCell id="3HGsCcztkfqZ8WQmEPc8-3" value="" style="rounded=0;whiteSpace=wrap;html=1;container=0;" parent="3HGsCcztkfqZ8WQmEPc8-1" vertex="1">
          <mxGeometry x="70" y="120" width="170" height="140" as="geometry" />
        </mxCell>
        <mxCell id="3HGsCcztkfqZ8WQmEPc8-6" value="" style="rounded=0;whiteSpace=wrap;html=1;" parent="3HGsCcztkfqZ8WQmEPc8-1" vertex="1">
          <mxGeometry x="690" y="120" width="210" height="130" as="geometry" />
        </mxCell>
        <mxCell id="3HGsCcztkfqZ8WQmEPc8-7" value="G3223Q (LCD Monitor)" style="text;html=1;align=left;verticalAlign=middle;whiteSpace=wrap;rounded=0;fontStyle=1;fontSize=20;" parent="3HGsCcztkfqZ8WQmEPc8-1" vertex="1">
          <mxGeometry x="690" y="90" width="220" height="30" as="geometry" />
        </mxCell>
        <mxCell id="3HGsCcztkfqZ8WQmEPc8-8" value="" style="group;fontSize=18;" parent="3HGsCcztkfqZ8WQmEPc8-1" vertex="1" connectable="0">
          <mxGeometry x="680" y="210" width="190" height="30" as="geometry" />
        </mxCell>
        <mxCell id="3HGsCcztkfqZ8WQmEPc8-9" value="" style="ellipse;whiteSpace=wrap;html=1;fontSize=18;" parent="3HGsCcztkfqZ8WQmEPc8-8" vertex="1">
          <mxGeometry y="5" width="20" height="20" as="geometry" />
        </mxCell>
        <mxCell id="3HGsCcztkfqZ8WQmEPc8-10" value="DP" style="text;html=1;align=left;verticalAlign=middle;whiteSpace=wrap;rounded=0;fontSize=18;" parent="3HGsCcztkfqZ8WQmEPc8-8" vertex="1">
          <mxGeometry x="30" width="160" height="30" as="geometry" />
        </mxCell>
        <mxCell id="3HGsCcztkfqZ8WQmEPc8-11" value="" style="group;fontSize=18;" parent="3HGsCcztkfqZ8WQmEPc8-1" vertex="1" connectable="0">
          <mxGeometry x="680" y="170" width="190" height="30" as="geometry" />
        </mxCell>
        <mxCell id="3HGsCcztkfqZ8WQmEPc8-12" value="" style="ellipse;whiteSpace=wrap;html=1;fontSize=18;" parent="3HGsCcztkfqZ8WQmEPc8-11" vertex="1">
          <mxGeometry y="5" width="20" height="20" as="geometry" />
        </mxCell>
        <mxCell id="3HGsCcztkfqZ8WQmEPc8-13" value="HDMI 2" style="text;html=1;align=left;verticalAlign=middle;whiteSpace=wrap;rounded=0;fontSize=18;" parent="3HGsCcztkfqZ8WQmEPc8-11" vertex="1">
          <mxGeometry x="30" width="160" height="30" as="geometry" />
        </mxCell>
        <mxCell id="3HGsCcztkfqZ8WQmEPc8-14" value="" style="group;fontSize=18;" parent="3HGsCcztkfqZ8WQmEPc8-1" vertex="1" connectable="0">
          <mxGeometry x="680" y="130" width="190" height="30" as="geometry" />
        </mxCell>
        <mxCell id="3HGsCcztkfqZ8WQmEPc8-15" value="" style="ellipse;whiteSpace=wrap;html=1;fontSize=18;" parent="3HGsCcztkfqZ8WQmEPc8-14" vertex="1">
          <mxGeometry y="5" width="20" height="20" as="geometry" />
        </mxCell>
        <mxCell id="3HGsCcztkfqZ8WQmEPc8-16" value="HDMI 1" style="text;html=1;align=left;verticalAlign=middle;whiteSpace=wrap;rounded=0;fontSize=18;" parent="3HGsCcztkfqZ8WQmEPc8-14" vertex="1">
          <mxGeometry x="30" width="160" height="30" as="geometry" />
        </mxCell>
        <mxCell id="3HGsCcztkfqZ8WQmEPc8-28" value="Main PC (Windows 11)" style="text;html=1;align=left;verticalAlign=middle;whiteSpace=wrap;rounded=0;fontStyle=1;fontSize=20;" parent="3HGsCcztkfqZ8WQmEPc8-1" vertex="1">
          <mxGeometry x="50" y="50" width="220" height="30" as="geometry" />
        </mxCell>
        <mxCell id="3HGsCcztkfqZ8WQmEPc8-29" value="RTX 3070" style="text;html=1;align=left;verticalAlign=middle;whiteSpace=wrap;rounded=0;fontStyle=1;fontSize=20;" parent="3HGsCcztkfqZ8WQmEPc8-1" vertex="1">
          <mxGeometry x="70" y="90" width="160" height="30" as="geometry" />
        </mxCell>
        <mxCell id="3HGsCcztkfqZ8WQmEPc8-30" value="" style="group" parent="3HGsCcztkfqZ8WQmEPc8-1" vertex="1" connectable="0">
          <mxGeometry x="120" y="222" width="130" height="30" as="geometry" />
        </mxCell>
        <mxCell id="3HGsCcztkfqZ8WQmEPc8-31" value="" style="ellipse;whiteSpace=wrap;html=1;fontSize=18;" parent="3HGsCcztkfqZ8WQmEPc8-30" vertex="1">
          <mxGeometry x="110" y="5" width="20" height="20" as="geometry" />
        </mxCell>
        <mxCell id="3HGsCcztkfqZ8WQmEPc8-32" value="DP 3" style="text;html=1;align=right;verticalAlign=middle;whiteSpace=wrap;rounded=0;fontSize=18;" parent="3HGsCcztkfqZ8WQmEPc8-30" vertex="1">
          <mxGeometry width="100" height="30" as="geometry" />
        </mxCell>
        <mxCell id="3HGsCcztkfqZ8WQmEPc8-36" value="" style="group" parent="3HGsCcztkfqZ8WQmEPc8-1" vertex="1" connectable="0">
          <mxGeometry x="120" y="192" width="130" height="30" as="geometry" />
        </mxCell>
        <mxCell id="3HGsCcztkfqZ8WQmEPc8-37" value="" style="ellipse;whiteSpace=wrap;html=1;fontSize=18;" parent="3HGsCcztkfqZ8WQmEPc8-36" vertex="1">
          <mxGeometry x="110" y="5" width="20" height="20" as="geometry" />
        </mxCell>
        <mxCell id="3HGsCcztkfqZ8WQmEPc8-38" value="DP 2" style="text;html=1;align=right;verticalAlign=middle;whiteSpace=wrap;rounded=0;fontSize=18;" parent="3HGsCcztkfqZ8WQmEPc8-36" vertex="1">
          <mxGeometry width="100" height="30" as="geometry" />
        </mxCell>
        <mxCell id="3HGsCcztkfqZ8WQmEPc8-39" value="" style="group" parent="3HGsCcztkfqZ8WQmEPc8-1" vertex="1" connectable="0">
          <mxGeometry x="120" y="160" width="130" height="30" as="geometry" />
        </mxCell>
        <mxCell id="3HGsCcztkfqZ8WQmEPc8-40" value="" style="ellipse;whiteSpace=wrap;html=1;fontSize=18;" parent="3HGsCcztkfqZ8WQmEPc8-39" vertex="1">
          <mxGeometry x="110" y="5" width="20" height="20" as="geometry" />
        </mxCell>
        <mxCell id="3HGsCcztkfqZ8WQmEPc8-41" value="DP 1" style="text;html=1;align=right;verticalAlign=middle;whiteSpace=wrap;rounded=0;fontSize=18;" parent="3HGsCcztkfqZ8WQmEPc8-39" vertex="1">
          <mxGeometry width="100" height="30" as="geometry" />
        </mxCell>
        <mxCell id="3HGsCcztkfqZ8WQmEPc8-35" value="HDMI 1" style="text;html=1;align=right;verticalAlign=middle;whiteSpace=wrap;rounded=0;fontSize=18;" parent="3HGsCcztkfqZ8WQmEPc8-1" vertex="1">
          <mxGeometry x="120" y="130" width="100" height="30" as="geometry" />
        </mxCell>
        <mxCell id="fObWNg__eZWwmuj1Wj-7-13" style="edgeStyle=orthogonalEdgeStyle;rounded=0;orthogonalLoop=1;jettySize=auto;html=1;exitX=1;exitY=0.5;exitDx=0;exitDy=0;entryX=0;entryY=0.5;entryDx=0;entryDy=0;" edge="1" parent="3HGsCcztkfqZ8WQmEPc8-1" source="3HGsCcztkfqZ8WQmEPc8-34" target="fObWNg__eZWwmuj1Wj-7-9">
          <mxGeometry relative="1" as="geometry" />
        </mxCell>
        <mxCell id="3HGsCcztkfqZ8WQmEPc8-34" value="" style="ellipse;whiteSpace=wrap;html=1;fontSize=18;" parent="3HGsCcztkfqZ8WQmEPc8-1" vertex="1">
          <mxGeometry x="230" y="135" width="20" height="20" as="geometry" />
        </mxCell>
        <mxCell id="fObWNg__eZWwmuj1Wj-7-0" value="" style="rounded=0;whiteSpace=wrap;html=1;" vertex="1" parent="3HGsCcztkfqZ8WQmEPc8-1">
          <mxGeometry x="360" y="120" width="220" height="130" as="geometry" />
        </mxCell>
        <mxCell id="fObWNg__eZWwmuj1Wj-7-1" value="GC553G2 (Capture Device)" style="text;html=1;align=left;verticalAlign=middle;whiteSpace=wrap;rounded=0;fontStyle=1;fontSize=20;" vertex="1" parent="3HGsCcztkfqZ8WQmEPc8-1">
          <mxGeometry x="360" y="90" width="280" height="30" as="geometry" />
        </mxCell>
        <mxCell id="fObWNg__eZWwmuj1Wj-7-9" value="" style="ellipse;whiteSpace=wrap;html=1;fontSize=18;" vertex="1" parent="3HGsCcztkfqZ8WQmEPc8-1">
          <mxGeometry x="350" y="135" width="20" height="20" as="geometry" />
        </mxCell>
        <mxCell id="fObWNg__eZWwmuj1Wj-7-10" value="HDMI IN" style="text;html=1;align=left;verticalAlign=middle;whiteSpace=wrap;rounded=0;fontSize=18;" vertex="1" parent="3HGsCcztkfqZ8WQmEPc8-1">
          <mxGeometry x="375" y="130" width="85" height="30" as="geometry" />
        </mxCell>
        <mxCell id="fObWNg__eZWwmuj1Wj-7-11" value="HDMI OUT" style="text;html=1;align=left;verticalAlign=middle;whiteSpace=wrap;rounded=0;fontSize=18;" vertex="1" parent="3HGsCcztkfqZ8WQmEPc8-1">
          <mxGeometry x="470" y="130" width="100" height="30" as="geometry" />
        </mxCell>
        <mxCell id="fObWNg__eZWwmuj1Wj-7-14" style="edgeStyle=orthogonalEdgeStyle;rounded=0;orthogonalLoop=1;jettySize=auto;html=1;exitX=1;exitY=0.5;exitDx=0;exitDy=0;entryX=0;entryY=0.5;entryDx=0;entryDy=0;" edge="1" parent="3HGsCcztkfqZ8WQmEPc8-1" source="fObWNg__eZWwmuj1Wj-7-12" target="3HGsCcztkfqZ8WQmEPc8-15">
          <mxGeometry relative="1" as="geometry" />
        </mxCell>
        <mxCell id="fObWNg__eZWwmuj1Wj-7-12" value="" style="ellipse;whiteSpace=wrap;html=1;fontSize=18;" vertex="1" parent="3HGsCcztkfqZ8WQmEPc8-1">
          <mxGeometry x="570" y="135" width="20" height="20" as="geometry" />
        </mxCell>
        <mxCell id="fObWNg__eZWwmuj1Wj-7-15" value="" style="rounded=0;whiteSpace=wrap;html=1;" vertex="1" parent="3HGsCcztkfqZ8WQmEPc8-1">
          <mxGeometry x="260" y="280" width="20" height="40" as="geometry" />
        </mxCell>
        <mxCell id="fObWNg__eZWwmuj1Wj-7-16" style="edgeStyle=orthogonalEdgeStyle;rounded=0;orthogonalLoop=1;jettySize=auto;html=1;exitX=0.5;exitY=1;exitDx=0;exitDy=0;" edge="1" parent="3HGsCcztkfqZ8WQmEPc8-1" source="fObWNg__eZWwmuj1Wj-7-15" target="fObWNg__eZWwmuj1Wj-7-15">
          <mxGeometry relative="1" as="geometry" />
        </mxCell>
        <mxCell id="fObWNg__eZWwmuj1Wj-7-17" value="USB 3.2" style="text;html=1;align=left;verticalAlign=middle;whiteSpace=wrap;rounded=0;fontSize=18;" vertex="1" parent="3HGsCcztkfqZ8WQmEPc8-1">
          <mxGeometry x="180" y="285" width="80" height="30" as="geometry" />
        </mxCell>
        <mxCell id="fObWNg__eZWwmuj1Wj-7-21" style="edgeStyle=orthogonalEdgeStyle;rounded=0;orthogonalLoop=1;jettySize=auto;html=1;exitX=1;exitY=0.5;exitDx=0;exitDy=0;entryX=1;entryY=0.5;entryDx=0;entryDy=0;" edge="1" parent="3HGsCcztkfqZ8WQmEPc8-1" source="fObWNg__eZWwmuj1Wj-7-18" target="fObWNg__eZWwmuj1Wj-7-15">
          <mxGeometry relative="1" as="geometry" />
        </mxCell>
        <mxCell id="fObWNg__eZWwmuj1Wj-7-18" value="" style="rounded=0;whiteSpace=wrap;html=1;" vertex="1" parent="3HGsCcztkfqZ8WQmEPc8-1">
          <mxGeometry x="570" y="190" width="20" height="40" as="geometry" />
        </mxCell>
        <mxCell id="fObWNg__eZWwmuj1Wj-7-19" value="USB 3.2" style="text;html=1;align=left;verticalAlign=middle;whiteSpace=wrap;rounded=0;fontSize=18;" vertex="1" parent="3HGsCcztkfqZ8WQmEPc8-1">
          <mxGeometry x="490" y="195" width="80" height="30" as="geometry" />
        </mxCell>
      </root>
    </mxGraphModel>
  </diagram>
</mxfile>
